<?xml version="1.0" encoding="UTF-8"?>
<svg id="Layer_2" data-name="Layer 2" xmlns="http://www.w3.org/2000/svg" viewBox="0 0 449.237 533.334">
  <defs>
    <style>
      .cls-1 {
        fill: #000;
        stroke-width: 0px;
      }
    </style>
  </defs>
  <g id="Layer_1-2" data-name="Layer 1">
    <path class="cls-1" d="M439.822,415.629c-8.066,18.633-17.613,35.785-28.674,51.554-15.078,21.497-27.423,36.377-36.937,44.641-14.748,13.563-30.551,20.51-47.472,20.904-12.148,0-26.798-3.457-43.851-10.469-17.109-6.979-32.832-10.436-47.209-10.436-15.078,0-31.249,3.457-48.545,10.436-17.323,7.013-31.278,10.667-41.948,11.029-16.226.691-32.4-6.453-48.545-21.465-10.305-8.987-23.193-24.394-38.633-46.221-16.566-23.308-30.185-50.336-40.855-81.15C5.728,351.17,0,318.941,0,287.738c0-35.742,7.723-66.569,23.193-92.402,12.158-20.75,28.332-37.118,48.575-49.134,20.243-12.016,42.116-18.14,65.67-18.531,12.889,0,29.79,3.987,50.793,11.822,20.944,7.862,34.392,11.848,40.289,11.848,4.408,0,19.348-4.662,44.674-13.955,23.95-8.619,44.163-12.188,60.723-10.782,44.871,3.621,78.582,21.31,101.001,53.177-40.13,24.315-59.982,58.372-59.587,102.061.362,34.03,12.708,62.349,36.97,84.834,10.996,10.436,23.275,18.501,36.937,24.23-2.963,8.592-6.09,16.823-9.415,24.723h0ZM336.912,10.67c0,26.673-9.745,51.577-29.168,74.628-23.439,27.403-51.791,43.238-82.536,40.74-.412-3.353-.618-6.728-.619-10.107,0-25.606,11.147-53.009,30.943-75.415,9.883-11.345,22.452-20.777,37.694-28.302,15.209-7.412,29.596-11.512,43.126-12.214.395,3.566.56,7.132.56,10.669h0Z"/>
  </g>
</svg>